<?xml version="1.0" standalone="no"?><!DOCTYPE svg PUBLIC "-//W3C//DTD SVG 1.1//EN" "http://www.w3.org/Graphics/SVG/1.1/DTD/svg11.dtd"><svg t="1555425519330" class="icon" style="" viewBox="0 0 1024 1024" version="1.1" xmlns="http://www.w3.org/2000/svg" p-id="4169" xmlns:xlink="http://www.w3.org/1999/xlink" width="200" height="200"><defs><style type="text/css"></style></defs><path d="M269.04 694.68c-14.936 0-27.088-11.928-27.088-26.608V423.792h433.424v68.408c14.096 1.2 27.696 4.088 40.632 8.448V383.16H201.32v284.912c0 37.144 30.32 67.24 67.72 67.24h231.52a173.208 173.208 0 0 1-12.04-40.632H269.04zM661.832 383.16H621.2v-40.64c0-91.368-76.296-162.528-162.528-162.528-88.36 0-162.528 74.152-162.528 162.528v40.64h-40.632v-40.64c0-110.776 92.384-203.168 203.168-203.168 109.384 0 203.168 88.624 203.168 203.168v40.64z" fill="" p-id="4170"></path><path d="M451.888 491.512h13.552a20.32 20.32 0 0 1 20.312 20.312V606.64a20.328 20.328 0 0 1-20.336 20.32h-13.544a20.32 20.32 0 0 1-20.32-20.32V511.832a20.352 20.352 0 0 1 20.336-20.32zM660.352 519.584c-80.744 0-146.176 65.448-146.176 146.168 0 80.736 65.44 146.176 146.176 146.176 80.728 0 146.176-65.448 146.176-146.176 0-80.72-65.448-146.168-146.176-146.168z m1.496 252.48c-61.2 0-110.808-49.592-110.808-110.808 0-61.192 49.6-110.8 110.808-110.8s110.808 49.6 110.808 110.8c0 61.216-49.6 110.808-110.808 110.808z" fill="" p-id="4171"></path><path d="M657.168 710.952h13.104v11.848h-13.104z" fill="" p-id="4172"></path><path d="M649.168 702.952h29.104v27.848h-29.104z" fill="" p-id="4173"></path><path d="M667.768 590.592c-24.528-0.408-40.128 11.648-46.768 36.168h10.6c5.816-19.952 17.864-29.72 36.168-29.304 17.872 1.24 27.648 10.392 29.312 27.44 1.248 9.56-5.608 19.128-20.576 28.68-12.888 8.328-19.128 18.304-18.712 29.936v6.232h10.6v-5.608c-0.416-10.392 4.16-18.496 13.72-24.32 18.712-9.976 27.44-22.032 26.192-36.168-2.088-20.784-15.592-31.808-40.536-33.056z" fill="" p-id="4174"></path><path d="M676.392 697.752h-26.6V683.52c-0.512-14.304 7.008-26.736 22.368-36.656 8.328-5.312 17.992-13.232 16.992-20.92-1.32-13.472-7.872-19.512-21.936-20.496h-0.552c-8.808 0-21.224 2.448-27.376 23.552l-1.68 5.768h-27.056l2.736-10.096c7.456-27.528 25.88-42.088 53.288-42.088l1.328 0.008c36.864 1.84 46.624 22.904 48.368 40.256 1.552 17.672-8.68 32.448-30.392 44.032-6.64 4.064-9.792 9.512-9.496 16.936l0.008 13.936z" fill="" p-id="4175"></path></svg>