<?xml version="1.0" standalone="no"?><!DOCTYPE svg PUBLIC "-//W3C//DTD SVG 1.1//EN" "http://www.w3.org/Graphics/SVG/1.1/DTD/svg11.dtd"><svg t="1555464501978" class="icon" style="" viewBox="0 0 1024 1024" version="1.1" xmlns="http://www.w3.org/2000/svg" p-id="901" xmlns:xlink="http://www.w3.org/1999/xlink" width="200" height="200"><defs><style type="text/css"></style></defs><path d="M512 454.4L270.933333 213.333333 554.666667 36.266667 817.066667 213.333333z" fill="#FF8A65" p-id="902"></path><path d="M512 454.4L270.933333 213.333333 362.666667 100.266667 817.066667 213.333333z" fill="#FFAB91" p-id="903"></path><path d="M652.8 938.666667H371.2c-42.666667 0-78.933333-29.866667-85.333333-72.533334L192 234.666667h640l-96 631.466666c-6.4 42.666667-42.666667 72.533333-83.2 72.533334z" fill="#B39DDB" p-id="904"></path><path d="M810.666667 277.333333H213.333333c-23.466667 0-42.666667-19.2-42.666666-42.666666s19.2-42.666667 42.666666-42.666667h597.333334c23.466667 0 42.666667 19.2 42.666666 42.666667s-19.2 42.666667-42.666666 42.666666z" fill="#7E57C2" p-id="905"></path></svg>